# xmcd
#
# Track frame offsets:
# 150
# 17900
# 31275
#
# Disc length: 625 seconds
#
# Revision: 0
# Processed by: cddbd v1.5.1PL0 Copyright (c) Steve Scherf et al.
# Submitted via: Audion 3.0.2 (http://www.panic.com/audion/)
#
DISCID=1b026f03
DTITLE=1927 - Scars - Single
DYEAR=1900
DGENRE=
TTITLE0=Scars
TTITLE1=Far Beyond the Probing Eye
TTITLE2=Greenwich
EXTD=
EXTT0=
EXTT1=
EXTT2=
PLAYORDER=
